<svg width="993" height="1028" viewBox="0 0 993 1028" fill="none" xmlns="http://www.w3.org/2000/svg">
<g opacity="0.5" clip-path="url(#clip0_9:51)">
<path d="M594.534 -233.075C593.074 -237.378 588.403 -239.68 584.102 -238.219C580.614 -237.035 578.439 -233.74 578.522 -230.242L391.763 -208.613C391.696 -208.931 391.615 -209.247 391.508 -209.562C390.048 -213.864 385.377 -216.167 381.076 -214.706C376.774 -213.246 374.47 -208.575 375.931 -204.273C376.957 -201.252 379.569 -199.222 382.522 -198.784L375.681 -71.4974C374.908 -71.4666 374.126 -71.3309 373.356 -71.0687C370.389 -70.0623 368.375 -67.5283 367.888 -64.6416L284.266 -70.8251C284.231 -71.5786 284.097 -72.3403 283.842 -73.0918C282.383 -77.393 277.711 -79.6967 273.409 -78.2359C269.14 -76.7865 266.843 -72.1738 268.238 -67.8984L167.273 -19.7797C165.406 -23.2544 161.256 -24.9804 157.396 -23.6697C156.22 -23.2708 155.202 -22.6263 154.36 -21.8203L71.8421 -93.4586C73.3337 -95.5403 73.8405 -98.283 72.9544 -100.893C71.4936 -105.195 66.8234 -107.498 62.5213 -106.037C58.2191 -104.576 55.9164 -99.9062 57.3771 -95.604C57.7164 -94.6068 58.2325 -93.7238 58.8719 -92.9641L-10.4431 -22.8894C-12.5669 -24.6298 -15.5101 -25.2744 -18.3022 -24.3266C-20.3828 -23.6193 -21.9906 -22.1585 -22.9364 -20.3533L-150.925 -73.0127C-150.434 -74.6081 -150.415 -76.366 -150.992 -78.0684C-152.453 -82.3705 -157.124 -84.6733 -161.425 -83.2125C-165.727 -81.7517 -168.029 -77.0804 -166.57 -72.7793C-165.648 -70.0643 -163.447 -68.1492 -160.865 -67.4697L-193.431 129.439C-194.494 129.361 -195.591 129.492 -196.664 129.856C-196.878 129.929 -197.084 130.015 -197.287 130.104L-307.604 89.3229C-307.196 87.8036 -307.216 86.1526 -307.76 84.551C-309.221 80.2488 -313.891 77.9461 -318.192 79.4069C-322.495 80.8666 -324.797 85.5378 -323.338 89.839C-321.877 94.1411 -317.205 96.4439 -312.904 94.9841C-312.643 94.8957 -312.39 94.7939 -312.145 94.6829L-182.323 321.879L-182.751 322.273L-181.894 322.63L-180.379 325.282L-180.523 323.201L-38.0058 382.532C-38.5065 384.137 -38.5312 385.906 -37.9493 387.62C-36.7928 391.027 -33.6214 393.171 -30.2136 393.195L-19.729 514.793C-20.1258 514.865 -20.5216 514.956 -20.9133 515.09C-25.2155 516.549 -27.5182 521.222 -26.0584 525.522C-24.6922 529.547 -20.5144 531.82 -16.46 530.9L-91.7024 854.204C-92.9288 854.035 -94.2107 854.132 -95.4628 854.558C-99.764 856.018 -102.068 860.69 -100.607 864.99C-99.1461 869.292 -94.4749 871.596 -90.1737 870.134C-88.4282 869.542 -87.0198 868.415 -86.0504 867.006L153.514 1001.17C152.704 1002.99 152.542 1005.11 153.234 1007.15C153.873 1009.03 155.127 1010.53 156.693 1011.5L104.914 1115.51C103.177 1114.84 101.203 1114.74 99.3 1115.39C94.9978 1116.85 92.6951 1121.52 94.1559 1125.82C95.2096 1128.93 97.9389 1130.98 100.992 1131.34L98.5002 1237.09C97.8073 1237.14 97.1104 1237.26 96.4216 1237.5C92.1205 1238.96 89.8167 1243.63 91.2775 1247.93C92.7383 1252.23 97.4095 1254.53 101.711 1253.07C102.135 1252.93 102.536 1252.75 102.921 1252.54L207.397 1411.73C204.765 1413.83 203.589 1417.42 204.734 1420.8C206.194 1425.1 210.865 1427.4 215.167 1425.94C218.071 1424.96 220.058 1422.51 220.597 1419.69L329.265 1430.17C329.211 1431.18 329.34 1432.22 329.685 1433.24C331.146 1437.54 335.817 1439.85 340.118 1438.39C344.42 1436.93 346.723 1432.26 345.262 1427.95C345.224 1427.84 345.176 1427.74 345.134 1427.63L449.14 1373.44C451.249 1376.02 454.807 1377.17 458.149 1376.03C462.451 1374.57 464.754 1369.9 463.294 1365.6C462.183 1362.33 459.215 1360.22 455.965 1360.04L436.459 1207.31C436.491 1207.3 436.523 1207.3 436.554 1207.29C440.856 1205.83 443.159 1201.16 441.699 1196.85C440.238 1192.55 435.567 1190.25 431.266 1191.71C429.915 1192.17 428.761 1192.94 427.859 1193.93L325.262 1112.54C326.53 1110.52 326.913 1107.96 326.085 1105.53C324.987 1102.29 322.073 1100.19 318.865 1099.96L310.486 909.341C310.945 909.269 311.403 909.164 311.856 909.011C316.159 907.55 318.461 902.88 317.001 898.578C316.324 896.585 314.953 895.028 313.254 894.069L355.852 799.113C357.512 799.681 359.363 799.734 361.152 799.126C365.454 797.665 367.757 792.995 366.296 788.693C365.581 786.587 364.093 784.964 362.259 784.023L425.521 626.263C427.098 626.733 428.83 626.743 430.507 626.172C434.808 624.713 437.112 620.04 435.651 615.74C434.191 611.437 429.519 609.134 425.218 610.596C423.425 611.205 421.986 612.374 421.016 613.838L321.903 560.529C322.664 558.735 322.803 556.67 322.126 554.679C320.814 550.814 316.909 548.574 313.011 549.215L245.187 288.745L244.455 288.936C247.255 287.984 249.199 285.669 249.817 282.984L354.737 297.007C354.697 297.989 354.826 298.995 355.162 299.983C356.622 304.285 361.293 306.588 365.595 305.127C369.897 303.666 372.2 298.996 370.739 294.694C369.845 292.059 367.745 290.18 365.264 289.45L409.122 64.8278C410.18 64.9018 411.269 64.7722 412.336 64.4104C415.621 63.295 417.733 60.3066 417.902 57.0406L514.672 55.3105C514.744 55.7423 514.842 56.1751 514.987 56.6027C516.449 60.9049 521.119 63.2076 525.42 61.7479C529.723 60.2871 532.025 55.6158 530.566 51.3147C529.749 48.9133 527.931 47.1369 525.738 46.2878L585.704 -222.279C586.909 -222.124 588.164 -222.225 589.391 -222.642C593.69 -224.103 595.996 -228.773 594.534 -233.075ZM514.56 53.7942L417.841 55.5233C417.771 55.0073 417.654 54.4892 417.48 53.9772C416.945 52.3992 415.974 51.0937 414.751 50.1417L471.167 -41.413L518.356 47.031C516.029 48.5134 514.615 51.07 514.56 53.7942ZM355.686 293.495L170.33 216.414C170.829 214.81 170.853 213.042 170.271 211.329C170.139 210.941 169.973 210.576 169.792 210.221L246.947 161.108L357.091 291.576C356.529 292.146 356.057 292.793 355.686 293.495ZM306.549 559.967C306.723 560.479 306.946 560.961 307.204 561.412L294.422 570.401L184.516 531.545L306.168 556.427C306.041 557.586 306.149 558.79 306.549 559.967ZM350.287 791.377L216.273 804.454C216.202 804.089 216.116 803.723 215.992 803.36C215.731 802.595 215.365 801.894 214.921 801.265L298.407 729.956L352.287 785.967C351.004 787.458 350.277 789.378 350.287 791.377ZM454.441 1360.09C453.914 1360.16 453.384 1360.28 452.861 1360.46C450.145 1361.38 448.23 1363.58 447.551 1366.16L372.918 1349.94L432.614 1207.62C433.384 1207.74 434.176 1207.76 434.972 1207.66L446.635 1298.98L454.441 1360.09ZM-85.1458 859.408C-85.4964 858.493 -85.9888 857.673 -86.5984 856.97L32.0071 733.516L51.094 813.487C51.0919 813.487 51.0909 813.487 51.0889 813.489C47.1743 814.817 44.925 818.806 45.6507 822.754L-85.1458 859.408ZM161.156 -7.73569L83.9386 35.2296L153.84 -10.4794C155.634 -8.42033 158.382 -7.35327 161.156 -7.73569ZM278.697 -62.6597C279.764 -63.0226 280.708 -63.5828 281.503 -64.286L327.628 -20.5764L201.5 93.4452C201.07 93.0505 200.598 92.7092 200.099 92.4162L272.996 -62.819C274.755 -62.1128 276.763 -62.0028 278.697 -62.6597ZM378.963 -55.6199C383.054 -57.201 385.21 -61.7345 383.787 -65.9256C382.761 -68.9469 380.15 -70.9762 377.196 -71.4131L383.945 -196.992L408.383 47.9973L378.963 -55.6199ZM370.433 -57.2257C372.3 -55.512 374.911 -54.7184 377.504 -55.2036L407.044 48.8351C406.107 49.1538 405.272 49.6308 404.543 50.2178L329.864 -20.5497L370.433 -57.2257ZM403.451 51.2746C402.032 52.9338 401.304 55.1214 401.505 57.3552L203.802 97.1429C203.774 97.0483 203.753 96.9517 203.72 96.8571C203.434 96.0142 203.021 95.2504 202.515 94.574L328.733 -19.5299L403.451 51.2746ZM233.88 283.305L158.215 319.223C157.02 317.205 155.032 315.836 152.806 315.373L159.542 255.178L233.916 278.845C233.501 280.261 233.467 281.795 233.88 283.305ZM106.855 1242.65C106.109 1240.45 104.525 1238.78 102.585 1237.86L130.255 1161.99L248.487 1318.8C247.946 1319.29 247.477 1319.85 247.088 1320.46L106.694 1248.35C107.401 1246.59 107.513 1244.58 106.855 1242.65ZM144.683 1135.25C144.935 1135.16 145.179 1135.06 145.417 1134.96L247.608 1315.11L130.874 1160.29L139.946 1135.41C141.455 1135.81 143.094 1135.79 144.683 1135.25ZM251.378 1317.09C251.125 1317.18 250.882 1317.28 250.643 1317.38L146.738 1134.2C148.174 1133.2 149.231 1131.78 149.795 1130.18L299.987 1167.6L255.627 1316.82C254.256 1316.54 252.798 1316.61 251.378 1317.09ZM310.074 1108.27L150.09 1125.81C150.023 1125.48 149.939 1125.15 149.827 1124.81C149.355 1123.42 148.545 1122.25 147.525 1121.34L209.716 1037.46L311.114 1104.18C310.429 1105.42 310.056 1106.83 310.074 1108.27ZM209.35 1035.4L168.275 1008.37C169.305 1006.44 169.571 1004.1 168.811 1001.86C168.644 1001.37 168.43 1000.91 168.184 1000.47L303.28 906.91C303.532 907.173 303.798 907.418 304.08 907.643L209.35 1035.4ZM301.423 903.867C301.652 904.537 301.963 905.153 302.334 905.72L167.319 999.226C166.343 998.063 165.069 997.204 163.655 996.724L194.623 866.423L301.09 899.938C300.887 901.215 300.978 902.558 301.423 903.867ZM193.523 864.485L61.7657 823.011C61.8921 822.429 61.959 821.833 61.9548 821.228L200.137 807.567C200.206 807.929 200.294 808.291 200.415 808.651C201.27 811.171 203.232 812.998 205.574 813.791L193.523 864.485ZM-81.7205 230.753C-80.0089 229.991 -78.6745 228.697 -77.8357 227.138L22.9011 269.859L-27.3784 377.241C-28.8463 376.712 -30.4716 376.594 -32.0743 376.98L-81.7205 230.753ZM64.4374 -90.06L64.717 -16.8828L-7.47217 -17.2539C-7.52872 -17.8964 -7.65311 -18.543 -7.87003 -19.1814C-8.20822 -20.1776 -8.72427 -21.0606 -9.36267 -21.8203L59.9502 -91.897C61.2229 -90.8567 62.7854 -90.208 64.4374 -90.06ZM-7.47733 -15.7376L64.7222 -15.3655L64.9268 38.0545C64.3079 38.1152 63.687 38.2385 63.0723 38.4462C61.7359 38.8995 60.5927 39.6654 59.6953 40.6307L-8.71194 -12.1386C-8.02936 -13.218 -7.60376 -14.4506 -7.47733 -15.7376ZM151.871 -14.9173C151.938 -14.357 152.062 -13.7947 152.25 -13.2386C152.434 -12.6968 152.67 -12.1869 152.948 -11.712L72.1516 41.1221C70.7484 39.357 68.6779 38.2457 66.4462 38.0463L66.2416 -15.3573L151.871 -14.9173ZM188.144 102.146C188.375 102.827 188.694 103.451 189.071 104.023L128.104 152.856L70.4677 52.9471C71.5492 52.1833 72.4096 51.179 73.0058 50.0359L188.073 97.1049C187.585 98.6983 187.568 100.449 188.144 102.146ZM154.264 213.91L55.1597 216.607C55.1073 216.4 55.0539 216.195 54.984 215.989C54.7537 215.308 54.434 214.683 54.0567 214.111L127.672 155.148L157.734 207.26C155.573 208.788 154.285 211.277 154.264 213.91ZM205.559 798.216C204.962 798.419 204.409 798.689 203.893 799.006L141.963 716.597L204.74 641.273C205.458 641.423 206.201 641.475 206.95 641.426L207.418 797.826C206.799 797.883 206.175 798.007 205.559 798.216ZM107.868 660.781L128.919 655.833L200.562 638.996C201.314 639.756 202.203 640.359 203.176 640.776L141.026 715.348L105.371 667.905C107.279 666.102 108.249 663.452 107.868 660.781ZM202.677 799.915C200.958 801.477 199.968 803.713 199.982 806.055L91.038 816.827L61.8006 819.717C61.7307 819.355 61.6443 818.994 61.522 818.634C61.1036 817.402 60.4149 816.342 59.5544 815.479L140.964 717.797L202.677 799.915ZM198.623 635.869C198.846 636.525 199.151 637.128 199.509 637.684L107.521 659.304C107.52 659.298 107.519 659.292 107.517 659.287C106.931 657.563 105.826 656.168 104.439 655.199L134.546 600.595L198.207 632.617C198.128 633.687 198.256 634.79 198.623 635.869ZM133.923 598.583L-10.6158 525.88C-10.366 525.244 -10.2005 524.576 -10.1151 523.892L150.337 528.873L165.725 529.351C165.784 529.982 165.907 530.618 166.12 531.246C166.665 532.85 167.657 534.176 168.909 535.132L133.923 598.583ZM-22.6526 381.625C-23.3712 380.01 -24.5627 378.731 -26.0039 377.886L24.2992 270.452L143.312 320.925C142.867 322.317 142.783 323.833 143.143 325.333L-22.6526 381.625ZM-187.166 142.178C-186.936 141.831 -186.734 141.468 -186.56 141.091L-53.947 185.537L-80.345 216.525C-82.4196 215.068 -85.1324 214.579 -87.7168 215.456C-89.0306 215.903 -90.1552 216.651 -91.0455 217.594L-120.855 194.206L-187.166 142.178ZM49.8398 226.422C50.8103 226.093 51.6728 225.593 52.4201 224.978L144.839 318.147C144.481 318.576 144.169 319.039 143.905 319.528L24.9438 269.078L44.8715 226.518C46.4444 226.982 48.1693 226.99 49.8398 226.422ZM48.8252 210.578L65.5981 54.4532C66.514 54.4665 67.4464 54.336 68.3624 54.0245C68.6338 53.932 68.8969 53.8271 69.1529 53.7099L126.904 153.818L53.1078 212.926C51.9483 211.726 50.4515 210.909 48.8252 210.578ZM60.9905 52.9564C61.9188 53.6082 62.9736 54.0646 64.09 54.2918L47.3151 210.417C46.3991 210.403 45.4677 210.533 44.5518 210.845C42.283 211.616 40.5786 213.283 39.6812 215.315L-51.3328 184.812L60.9905 52.9564ZM39.1959 216.754C39.0911 217.197 39.0181 217.649 38.9883 218.108L-31.1984 220.584L-76.9126 222.197C-76.9825 221.663 -77.1037 221.129 -77.2836 220.6C-77.6918 219.398 -78.3559 218.359 -79.1886 217.507L-52.3947 186.055L39.1959 216.754ZM-76.8632 223.719L39.0366 219.677C39.1055 220.212 39.2278 220.748 39.4067 221.278C40.1242 223.39 41.6169 225.016 43.458 225.955L23.5446 268.484L-77.2436 225.741C-77.0349 225.089 -76.9033 224.411 -76.8632 223.719ZM146.423 330.148C147.825 331.129 149.514 331.67 151.262 331.643L159.084 404.316L171.615 520.712C171.497 520.746 171.38 520.772 171.264 520.813C169.621 521.371 168.273 522.399 167.31 523.694L51.5597 441.836L146.423 330.148ZM148.496 315.632C147.534 315.958 146.678 316.452 145.936 317.061L53.7709 223.574C54.1729 223.038 54.5008 222.453 54.7609 221.838L158.065 254.71L151.295 315.205C150.369 315.187 149.424 315.317 148.496 315.632ZM58.2469 49.675C58.6467 50.5478 59.1926 51.3147 59.834 51.9716L-52.883 184.291L-186.05 139.66C-185.737 138.425 -185.702 137.11 -186.003 135.805L58.2469 49.675ZM-22.1654 383.063L143.633 326.771C144.039 327.683 144.598 328.485 145.265 329.166L50.3148 440.957L-23.0423 389.081C-22.0215 387.307 -21.6576 385.167 -22.1654 383.063ZM50.5728 442.999L166.519 524.993C166.087 525.877 165.818 526.839 165.724 527.832L-10.0668 522.375C-10.1111 521.663 -10.2396 520.943 -10.4801 520.235C-10.8893 519.029 -11.5574 517.988 -12.3932 517.134L50.5728 442.999ZM-11.2953 527.238L133.19 599.913L103.121 654.447C101.285 653.615 99.1438 653.443 97.0836 654.143C96.3774 654.382 95.7318 654.716 95.1407 655.112L-12.3912 528.623C-11.9769 528.199 -11.6068 527.736 -11.2953 527.238ZM102.373 669.72C103.024 669.499 103.623 669.197 104.177 668.841L140.028 716.549L58.3877 814.507C57.8727 814.152 57.3216 813.854 56.7388 813.626L98.3193 670.037C99.6331 670.266 101.021 670.18 102.373 669.72ZM198.478 631.053L135.281 599.264L170.198 535.936C171.65 536.672 173.315 536.977 174.992 536.753L203.396 625.583C200.91 626.564 199.143 628.632 198.478 631.053ZM158.237 253.171L55.2235 220.391C55.3849 219.654 55.4465 218.891 55.3982 218.12L154.398 215.427C154.469 215.826 154.561 216.222 154.696 216.618C155.77 219.783 158.584 221.859 161.709 222.158L158.237 253.171ZM159.839 206.184C159.566 206.276 159.303 206.381 159.047 206.498L128.87 154.188L190.02 105.21C190.839 106.057 191.824 106.716 192.908 107.145L164.05 205.903C162.69 205.638 161.245 205.707 159.839 206.184ZM271.643 -63.5098L198.724 91.7696C197.03 91.1569 195.126 91.088 193.288 91.713C191.201 92.4213 189.59 93.8893 188.646 95.7007L73.5794 48.6306C74.0667 47.0392 74.0832 45.2875 73.5075 43.5913C73.4294 43.36 73.3369 43.138 73.2402 42.919L269.103 -66.0634C269.762 -65.0179 270.633 -64.1513 271.643 -63.5098ZM151.832 -16.4346L66.2354 -16.8756L65.9548 -90.0692C66.5736 -90.1299 67.1945 -90.2533 67.8093 -90.4609C68.9854 -90.8598 70.0051 -91.5053 70.847 -92.3113L153.364 -20.6751C152.477 -19.4395 151.937 -17.9725 151.832 -16.4346ZM-13.0131 -8.7493C-11.6757 -9.20264 -10.5335 -9.96851 -9.63611 -10.9348L57.778 41.0686L-27.6086 -5.20372L-21.3543 -10.61C-19.2089 -8.55191 -16.0231 -7.72746 -13.0131 -8.7493ZM58.1635 43.0054C57.4748 44.6142 57.2939 46.442 57.7483 48.241L-186.116 134.234L-186.633 134.043C-186.836 133.627 -187.066 133.232 -187.328 132.864L-28.8371 -4.14076L58.1635 43.0054ZM-188.114 143.363L-91.9789 218.79C-93.2896 220.827 -93.6988 223.417 -92.8589 225.889C-91.5677 229.691 -87.7682 231.927 -83.9317 231.387L-113.18 258.288L-188.866 144.047C-188.602 143.834 -188.35 143.606 -188.114 143.363ZM-82.7721 232.381L-33.5125 377.468C-33.6964 377.549 -33.8723 377.643 -34.048 377.737L-112.333 259.57L-82.7721 232.381ZM-27.5172 392.765C-26.0646 392.271 -24.8474 391.407 -23.9192 390.32L49.3279 442.119L-13.5518 516.153C-14.9067 515.204 -16.5309 514.672 -18.2168 514.661L-28.7025 393.062C-28.3056 392.989 -27.9099 392.898 -27.5172 392.765ZM93.9637 656.075C91.7884 658.219 90.891 661.49 91.9385 664.576C92.2911 665.614 92.8329 666.529 93.5072 667.311L32.8378 730.46L-14.9128 530.384C-14.4246 530.166 -13.9702 529.905 -13.5456 529.608L93.9637 656.075ZM94.6051 668.359C95.2857 668.9 96.0423 669.334 96.8544 669.636L55.28 813.205C54.4011 813.035 53.4872 813.008 52.5712 813.14L33.2572 732.216L94.6051 668.359ZM61.3103 824.458L193.173 865.968L162.18 996.373C160.941 996.195 159.645 996.291 158.379 996.721C158.09 996.82 157.812 996.934 157.541 997.06L58.5264 827.961C59.7775 827.064 60.7284 825.842 61.3103 824.458ZM163.667 1012.3C165.213 1011.77 166.494 1010.83 167.442 1009.64L208.445 1036.62L146.304 1120.43C145.601 1120 144.837 1119.69 144.037 1119.49L160.522 1012.72C161.559 1012.78 162.624 1012.65 163.667 1012.3ZM134.25 1130.1C134.995 1132.3 136.579 1133.97 138.521 1134.89L129.785 1158.84L107.48 1129.26C108.776 1128.08 109.655 1126.51 110 1124.8L133.821 1127.35C133.808 1128.26 133.938 1129.19 134.25 1130.1ZM104.588 1130.97C105.189 1130.76 105.747 1130.49 106.265 1130.17L129.164 1160.54L101.159 1237.34C100.785 1237.24 100.404 1237.17 100.019 1237.13L102.51 1131.38C103.202 1131.33 103.9 1131.2 104.588 1130.97ZM246.396 1321.82C245.687 1323.58 245.575 1325.59 246.233 1327.52C246.914 1329.53 248.293 1331.09 250.003 1332.05L240.416 1353.59L106.057 1249.73L246.396 1321.82ZM251.391 1332.66C253.045 1333.22 254.886 1333.27 256.667 1332.67C257.347 1332.44 257.971 1332.12 258.542 1331.74L332.458 1424.09C332.318 1424.2 332.177 1424.31 332.045 1424.42L241.653 1354.55L251.391 1332.66ZM334.83 1422.81C334.453 1422.94 334.097 1423.1 333.753 1423.28L259.729 1330.79C260.717 1329.84 261.444 1328.66 261.856 1327.36L370.811 1351.04L340.622 1423.01C338.841 1422.27 336.799 1422.14 334.83 1422.81ZM262.179 1325.88C262.325 1324.69 262.223 1323.45 261.811 1322.24C261.646 1321.75 261.436 1321.3 261.195 1320.86L428.497 1205.68C429.273 1206.36 430.166 1206.89 431.129 1207.24L371.409 1349.61L262.179 1325.88ZM426.123 1202.14C426.429 1203.05 426.885 1203.86 427.442 1204.57L260.333 1319.61C259.453 1318.56 258.334 1317.75 257.083 1317.25L301.462 1167.97L425.704 1198.93C425.629 1199.99 425.759 1201.08 426.123 1202.14ZM300.42 1166.14L150.164 1128.7C150.234 1128.25 150.269 1127.79 150.261 1127.32L310.236 1109.78C310.306 1110.13 310.391 1110.47 310.507 1110.82C311.326 1113.23 313.158 1115.02 315.368 1115.86L300.42 1166.14ZM315.652 1100.38C314.154 1100.89 312.907 1101.8 311.968 1102.93L210.622 1036.24L305.352 908.478C306.458 909.064 307.694 909.399 308.97 909.438L317.347 1100C316.781 1100.07 316.213 1100.19 315.652 1100.38ZM301.469 898.465L194.976 864.942L207.051 814.143C208.289 814.32 209.584 814.223 210.849 813.795C211.907 813.435 212.842 812.88 213.632 812.187L302.586 896.359C302.113 897.004 301.737 897.713 301.469 898.465ZM213.933 800.112C212.584 798.802 210.818 797.986 208.938 797.816L208.469 641.181C208.665 641.13 208.86 641.08 209.055 641.015C209.985 640.699 210.812 640.227 211.537 639.648L297.352 728.86L213.933 800.112ZM212.633 638.595C213.862 637.167 214.578 635.344 214.627 633.434L419.75 619.689C419.822 620.137 419.924 620.584 420.074 621.028C420.334 621.794 420.701 622.494 421.144 623.123L298.511 727.871L212.633 638.595ZM419.648 618.173L214.525 631.92C214.453 631.472 214.352 631.024 214.202 630.58C214.028 630.068 213.806 629.587 213.547 629.136L294.654 572.094L419.893 616.371C419.744 616.956 419.664 617.561 419.648 618.173ZM212.671 627.895C210.781 625.679 207.803 624.584 204.854 625.157L176.476 536.411C176.502 536.403 176.527 536.398 176.553 536.39C178.777 535.636 180.459 534.02 181.37 532.044L292.897 571.473L212.671 627.895ZM173.11 520.421L152.771 331.476C153.111 331.407 153.449 331.323 153.785 331.209C158.086 329.748 160.39 325.077 158.929 320.776C158.908 320.714 158.88 320.659 158.858 320.598L234.411 284.733C235.29 286.552 236.778 287.922 238.539 288.686L174.776 520.428C174.228 520.37 173.671 520.364 173.11 520.421ZM234.474 277.429L159.712 253.641L163.235 222.157C163.867 222.098 164.5 221.975 165.128 221.762C166.412 221.326 167.512 220.6 168.393 219.687L235.27 276.154C234.965 276.554 234.7 276.982 234.474 277.429ZM168.979 208.937C168.067 207.76 166.863 206.865 165.508 206.329L194.366 107.571C195.727 107.836 197.172 107.767 198.578 107.29C199.329 107.035 200.014 106.678 200.634 106.246L245.961 159.935L168.979 208.937ZM201.792 105.265C203.492 103.534 204.373 101.105 204.107 98.6304L401.783 58.8479C401.822 58.9867 401.854 59.1264 401.901 59.2652C402.032 59.6507 402.197 60.0146 402.377 60.3662L247.251 159.113L201.792 105.265ZM413.471 49.3224C412.391 48.7632 411.19 48.4466 409.951 48.4075L385.288 -198.852C385.647 -198.922 386.007 -199.008 386.364 -199.131C386.549 -199.193 386.725 -199.27 386.9 -199.344L470.337 -42.9652L413.471 49.3224ZM388.241 -200.057C390.607 -201.614 392.01 -204.291 391.944 -207.107L578.703 -228.735C578.769 -228.417 578.851 -228.102 578.958 -227.786C579.51 -226.158 580.524 -224.817 581.804 -223.858L471.26 -44.461L388.241 -200.057ZM368.211 -60.6376C368.497 -59.7936 368.911 -59.0308 369.417 -58.3534L328.759 -21.5983L282.541 -65.3952C283.422 -66.528 283.993 -67.8788 284.194 -69.3077L367.777 -63.1274C367.791 -62.3009 367.931 -61.4631 368.211 -60.6376ZM166.361 -10.6326C168.095 -12.7235 168.753 -15.6194 167.869 -18.3837L254.435 -59.6394L166.361 -10.6326ZM-23.4463 -13.8934C-23.1811 -13.1101 -22.8058 -12.3956 -22.3484 -11.7552L-29.0355 -5.97575L-145.87 -69.2892L-23.5141 -18.9481C-24.0055 -17.3526 -24.025 -15.5958 -23.4463 -13.8934ZM-159.369 -67.2178C-158.305 -67.1418 -157.21 -67.2713 -156.137 -67.6352C-154.354 -68.2407 -152.922 -69.4034 -151.95 -70.858L-30.265 -4.91382L-188.324 131.718C-189.339 130.745 -190.584 130.047 -191.937 129.691L-159.369 -67.2178ZM-310.828 93.9273C-309.655 93.106 -308.736 92.004 -308.133 90.7467L-198.988 131.096C-201.732 133.176 -202.977 136.849 -201.808 140.29C-200.668 143.65 -197.568 145.78 -194.217 145.861L-182.348 318.776L-310.828 93.9273ZM-180.716 320.4L-192.703 145.756C-192.26 145.684 -191.816 145.583 -191.377 145.434C-190.939 145.286 -190.529 145.097 -190.135 144.886L-114.315 259.329L-180.716 320.4ZM-179.977 321.784L-113.464 260.611L-35.3125 378.574C-36.1904 379.282 -36.9048 380.153 -37.423 381.13L-179.977 321.784ZM-15.617 533.978L31.5877 731.761L-87.6963 855.919C-88.4529 855.318 -89.3092 854.856 -90.2241 854.551L-15.617 533.978ZM-85.3082 865.683C-84.6524 864.205 -84.4293 862.536 -84.7356 860.871L46.0619 824.217C47.6327 828.324 52.1775 830.492 56.3779 829.067C56.6668 828.968 56.9454 828.854 57.2157 828.727L156.23 997.825C155.447 998.385 154.787 999.076 154.256 999.849L-85.3082 865.683ZM158.053 1012.18C158.37 1012.3 158.694 1012.4 159.024 1012.48L142.538 1119.25C141.503 1119.19 140.438 1119.32 139.393 1119.67C136.518 1120.65 134.544 1123.06 133.981 1125.84L110.161 1123.29C110.173 1122.38 110.043 1121.45 109.732 1120.53C109.093 1118.65 107.841 1117.15 106.273 1116.18L158.053 1012.18ZM104.19 1251.71C104.508 1251.46 104.809 1251.19 105.081 1250.9L239.78 1355.02L215.153 1410.37C213.499 1409.81 211.657 1409.76 209.877 1410.37C209.451 1410.51 209.051 1410.7 208.667 1410.9L104.19 1251.71ZM220.741 1418.19C220.744 1417.3 220.611 1416.4 220.31 1415.51C219.63 1413.51 218.251 1411.95 216.54 1410.99L241.017 1355.98L330.999 1425.53C330.276 1426.46 329.762 1427.53 329.485 1428.67L220.741 1418.19ZM344.461 1426.27C343.817 1425.23 342.962 1424.37 341.971 1423.72L372.32 1351.37L447.299 1367.66C447.224 1368.72 447.353 1369.82 447.716 1370.89C447.87 1371.34 448.068 1371.77 448.289 1372.18L344.461 1426.27ZM426.939 1195.14C426.498 1195.84 426.166 1196.61 425.954 1197.42L301.894 1166.51L316.832 1116.26C318.162 1116.51 319.57 1116.43 320.941 1115.96C322.291 1115.5 323.442 1114.73 324.344 1113.75L426.939 1195.14ZM311.868 893.446C310.208 892.878 308.356 892.825 306.566 893.434C305.42 893.823 304.421 894.445 303.592 895.223L214.67 811.079C215.802 809.634 216.432 807.834 216.423 805.964L350.437 792.886C350.507 793.251 350.595 793.618 350.718 793.979C351.395 795.972 352.766 797.53 354.466 798.489L311.868 893.446ZM360.85 783.458C359.272 782.989 357.542 782.979 355.864 783.549C354.936 783.864 354.108 784.336 353.383 784.914L299.565 728.967L422.132 624.277C422.721 624.848 423.388 625.326 424.111 625.698L360.85 783.458ZM418.816 614.38L296.177 571.021L308.079 562.652C310.199 565.141 313.697 566.227 316.983 565.111C318.776 564.502 320.214 563.332 321.185 561.867L418.816 614.38ZM311.542 549.594C309.014 550.509 307.204 552.539 306.474 554.939L182.079 529.496C182.207 528.337 182.098 527.134 181.697 525.957C180.809 523.338 178.728 521.467 176.267 520.728L239.984 289.16C241.186 289.434 242.459 289.447 243.721 289.143L311.542 549.594ZM250.019 281.48C250.059 280.497 249.931 279.491 249.596 278.504C248.135 274.202 243.464 271.899 239.162 273.36C238.07 273.731 237.107 274.31 236.302 275.037L169.341 218.501C169.488 218.279 169.622 218.051 169.747 217.817L355.103 294.898C355.041 295.097 354.987 295.298 354.94 295.502L250.019 281.48ZM363.774 289.16C362.637 289.045 361.46 289.159 360.306 289.55C359.556 289.805 358.87 290.162 358.25 290.594L248.24 160.285L403.189 61.6512C404.312 63.1017 405.878 64.1246 407.622 64.58L363.774 289.16ZM524.273 45.8745C522.933 45.6247 521.513 45.7008 520.131 46.1706C519.985 46.2199 519.848 46.2816 519.707 46.3392L472.088 -42.9087L583.095 -223.061C583.458 -222.881 583.836 -222.737 584.222 -222.611L524.273 45.8745Z" fill="white"/>
</g>
<defs>
<clipPath id="clip0_9:51">
<rect width="1028" height="1028" fill="white" transform="translate(-35)"/>
</clipPath>
</defs>
</svg>
