<?xml version="1.0" encoding="utf-8"?>
<!-- Generator: Adobe Illustrator 16.0.0, SVG Export Plug-In . SVG Version: 6.00 Build 0)  -->
<!DOCTYPE svg PUBLIC "-//W3C//DTD SVG 1.1 Tiny//EN" "http://www.w3.org/Graphics/SVG/1.1/DTD/svg11-tiny.dtd">
<svg version="1.1" baseProfile="tiny" id="Camada_1"
	 xmlns="http://www.w3.org/2000/svg" xmlns:xlink="http://www.w3.org/1999/xlink" x="0px" y="0px" width="559.333px"
	 height="222.665px" viewBox="0 0 559.333 222.665" xml:space="preserve">
<g>
	<path fill="#1E80A7" d="M264.313,45.928l-26.621,68.122c-0.054,0.146-0.129,0.283-0.222,0.406
		c-0.525,0.656-1.482,0.763-2.137,0.237c-0.18-0.143-0.325-0.325-0.424-0.532l-26.854-68.239c-0.259-0.652-0.89-1.082-1.593-1.082
		l-31.834,0.036c-0.944,0-1.708,0.765-1.708,1.709c0,0.237,0.049,0.475,0.145,0.692l61.24,138.288
		c0.38,0.865,1.388,1.258,2.252,0.88c0.393-0.175,0.706-0.487,0.878-0.88l61.045-138.271c0.385-0.863-0.005-1.873-0.868-2.256
		c-0.22-0.097-0.456-0.144-0.693-0.144L265.91,44.86c-0.706,0-1.339,0.429-1.598,1.087"/>
	<g>
		<path fill="none" d="M388.283,112.557c0.05,0.922,0.182,1.382,0.394,1.382c0.473,0,1.067-0.974,1.778-2.924
			c0.71-1.947,0.908-3.106,0.591-3.476c-0.738-0.366-1.421-0.315-2.054,0.159c-0.264,0.264-0.461,0.909-0.591,1.935
			C388.268,110.66,388.229,111.637,388.283,112.557z"/>
		<path fill="none" d="M437.569,127.952c-0.168,0.532,0.225,0.76,1.188,0.679c2.211-0.157,5.027-1.105,8.452-2.844
			c0.525-0.315,0.974-0.579,1.343-0.789c1.631-1.108,2.396-2.108,2.29-3.004c-0.055-0.578-0.185-0.96-0.396-1.146
			c-0.21-0.183-0.552-0.302-1.026-0.354c-1.686-0.104-3.647,0.502-5.886,1.817c-1.912,1.126-3.548,2.535-4.94,4.197
			c-0.095,0.345-0.271,0.659-0.549,0.937C437.899,127.605,437.74,127.774,437.569,127.952z"/>
		<path fill="none" d="M390.257,103.434c0.421,0,0.842-0.027,1.265-0.08c0.789-0.051,1.264-0.499,1.421-1.341
			c4.791-14.007,6.715-21.985,5.768-23.934c-0.106-0.317-0.315-0.514-0.631-0.594c-0.316-0.08-0.581-0.011-0.79,0.197
			c-1.212,1.317-2.58,4.227-4.107,8.728c-1.531,4.504-2.688,9.571-3.478,15.206C389.493,102.828,389.679,103.434,390.257,103.434z"
			/>
		<path fill="none" d="M384.728,109.434c-0.053-0.419-0.236-0.763-0.553-1.026c-0.315-0.262-0.684-0.368-1.105-0.315
			c-1.908,0.136-3.864,0.284-5.854,0.439c0.055,0.303,0.137,0.601,0.258,0.885c0.041,0.089,0.088,0.174,0.141,0.258l7.242,11.849
			C384.51,117.843,384.458,113.824,384.728,109.434z"/>
		<path fill="none" d="M385.517,101.694c0.474-3.264,1.094-6.449,1.856-9.557c0.246-1.004,0.525-1.971,0.797-2.947l-9.589,15.087
			c1.758-0.129,3.497-0.255,5.199-0.372C384.728,103.801,385.305,103.063,385.517,101.694z"/>
		<path fill="none" d="M506.806,106.158c1.976-5.766,3.528-11.387,4.661-16.862c1.132-5.478,1.226-8.716,0.275-9.716
			c-0.473-0.526-0.921-0.792-1.342-0.792c-0.158,0-0.316,0.029-0.474,0.08c-1.316,0.581-2.896,3.119-4.74,7.623
			c-1.843,4.502-3.304,9.809-4.384,15.917c-1.079,6.107-1.223,11.215-0.433,15.322c0.051,0.368,0.235,0.62,0.553,0.749
			c0.314,0.133,0.578,0.04,0.789-0.276C503.134,115.942,504.831,111.925,506.806,106.158z"/>
		<path fill="#1E80A7" d="M391.46,132.328c0.909,2.247,2.035,4.101,3.388,5.542L391.46,132.328z"/>
		<path fill="#5C2079" d="M387.373,92.137c-0.763,3.108-1.383,6.293-1.856,9.557c-0.212,1.37-0.789,2.107-1.736,2.212
			c-1.702,0.117-3.441,0.242-5.199,0.372l-0.773,1.216c-0.433,0.681-0.663,1.472-0.669,2.279c0,0.256,0.03,0.509,0.077,0.76
			c1.989-0.155,3.945-0.303,5.854-0.439c0.422-0.053,0.79,0.053,1.105,0.315c0.316,0.264,0.5,0.607,0.553,1.026
			c-0.27,4.39-0.218,8.409,0.129,12.09l6.604,10.804c-0.966-2.388-1.687-5.22-2.151-8.516c2.632-6.635,4.607-11.873,5.924-15.719
			c0.157-0.368,0.328-0.605,0.513-0.711c0.186-0.104,0.515-0.157,0.989-0.157c10.109-0.79,19.271-1.184,27.488-1.184
			c0.579,0,1.066-0.21,1.461-0.632c0.396-0.421,0.593-0.909,0.593-1.46c0-0.554-0.197-1.04-0.593-1.461
			c-0.395-0.423-0.882-0.634-1.461-0.634c-5.32,0-14.009,0.37-26.067,1.106c-0.157,0-0.289-0.04-0.395-0.12
			c-0.105-0.078-0.198-0.235-0.277-0.472c-0.078-0.237-0.04-0.565,0.119-0.989c2.105-5.896,3.635-11.176,4.581-15.836
			c0.949-4.662,1.027-7.783,0.237-9.361c-1.005-2.054-2.322-3.112-3.943-3.209L388.17,89.19
			C387.898,90.166,387.619,91.133,387.373,92.137z M389.704,101.616c0.789-5.635,1.946-10.702,3.478-15.206
			c1.527-4.5,2.896-7.411,4.107-8.728c0.209-0.208,0.474-0.277,0.79-0.197c0.315,0.08,0.524,0.277,0.631,0.594
			c0.947,1.949-0.977,9.926-5.768,23.934c-0.157,0.842-0.632,1.29-1.421,1.341c-0.423,0.053-0.844,0.08-1.265,0.08
			C389.679,103.434,389.493,102.828,389.704,101.616z M388.992,107.698c0.633-0.474,1.315-0.525,2.054-0.159
			c0.317,0.37,0.119,1.529-0.591,3.476c-0.711,1.95-1.306,2.924-1.778,2.924c-0.212,0-0.344-0.46-0.394-1.382
			c-0.055-0.92-0.016-1.897,0.118-2.924C388.531,108.607,388.729,107.962,388.992,107.698z"/>
		<path fill="#5C2079" d="M431.177,131.315c0.443-1.893,1.352-3.771,2.72-5.633c-0.413,0.384-0.989,0.916-1.736,1.605
			c-1.026,0.948-2.106,1.884-3.238,2.804c-1.133,0.922-2.503,1.964-4.108,3.121c-1.606,1.159-3.2,2.21-4.779,3.159
			c-1.58,0.948-3.305,1.846-5.173,2.687c-1.872,0.842-3.662,1.5-5.372,1.975c-1.711,0.473-3.464,0.71-5.253,0.71
			c-1.791,0-3.449-0.289-4.976-0.869c-1.668-0.644-3.139-1.646-4.413-3.004l4.522,7.398c1.581,0.44,3.179,0.661,4.791,0.661
			c2.947,0,6.12-0.645,9.518-1.935c3.396-1.29,6.37-2.727,8.925-4.307c2.554-1.581,5.135-3.395,7.742-5.449
			c0.2-0.157,0.386-0.306,0.576-0.457c-0.004-0.134-0.026-0.286-0.021-0.412C430.927,132.685,431.019,132.001,431.177,131.315z"/>
		<path fill="#5C2079" d="M437.569,127.952c0.171-0.178,0.33-0.347,0.477-0.507c0.277-0.277,0.454-0.592,0.549-0.937
			c-0.238,0.284-0.484,0.559-0.707,0.858C437.726,127.592,437.622,127.786,437.569,127.952z"/>
		<path fill="#5C2079" d="M377.808,105.494l0.773-1.216c-0.637,0.047-1.267,0.092-1.91,0.141c-2.422,0.186-4.515,0.345-6.28,0.474
			c-1.765,0.133-3.369,0.25-4.817,0.357c-1.448,0.104-2.568,0.184-3.357,0.235c-0.791,0.053-1.212,0.08-1.264,0.08
			c-0.58,0-1.053,0.21-1.424,0.632c-0.368,0.423-0.552,0.922-0.552,1.5c0,0.581,0.209,1.066,0.632,1.461
			c0.423,0.396,0.921,0.567,1.5,0.514h0.158c0.054,0,0.449-0.026,1.186-0.08c0.738-0.051,1.803-0.118,3.199-0.197
			s2.938-0.182,4.621-0.317c1.687-0.129,3.687-0.289,6.004-0.473c0.316-0.025,0.624-0.048,0.939-0.073
			c-0.047-0.25-0.077-0.504-0.077-0.76C377.145,106.966,377.375,106.175,377.808,105.494z"/>
		<path fill="#5C2079" d="M397.443,73.021c-1.368,0.264-2.697,1.319-3.986,3.161c-1.292,1.842-2.437,4.185-3.438,7.029
			c-0.679,1.925-1.281,3.933-1.85,5.979l10.308-16.218C398.144,72.952,397.803,72.958,397.443,73.021z"/>
		<path fill="#1E80A7" d="M416.867,173.893l-17.497-28.625l-4.522-7.398c-1.353-1.441-2.479-3.295-3.388-5.542l-6.604-10.804
			l-7.242-11.849c-0.053-0.083-0.1-0.169-0.141-0.258c-0.121-0.285-0.203-0.582-0.258-0.885c-0.315,0.025-0.623,0.048-0.939,0.073
			c-2.317,0.184-4.317,0.344-6.004,0.473c-1.684,0.135-3.225,0.237-4.621,0.317s-2.461,0.146-3.199,0.197
			c-0.736,0.053-1.132,0.08-1.186,0.08h-0.158c-0.579,0.053-1.077-0.118-1.5-0.514c-0.423-0.395-0.632-0.88-0.632-1.461
			c0-0.579,0.184-1.078,0.552-1.5c0.371-0.421,0.844-0.632,1.424-0.632c0.052,0,0.473-0.026,1.264-0.08
			c0.789-0.051,1.909-0.131,3.357-0.235c1.448-0.106,3.053-0.224,4.817-0.357c1.766-0.129,3.858-0.288,6.28-0.474
			c0.644-0.048,1.273-0.094,1.91-0.141l9.589-15.087c0.568-2.046,1.171-4.054,1.85-5.979c1.001-2.844,2.146-5.187,3.438-7.029
			c1.289-1.842,2.618-2.897,3.986-3.161c0.359-0.063,0.7-0.068,1.034-0.048l15.64-24.608c0.676-1.059,0.363-2.463-0.694-3.138
			c-0.364-0.231-0.787-0.354-1.22-0.354l-26.526-0.031c-0.795-0.001-1.533,0.414-1.945,1.093l-23.555,38.719
			c-0.653,1.072-2.051,1.411-3.123,0.757c-0.309-0.188-0.57-0.448-0.758-0.757l-23.661-38.677c-0.411-0.675-1.146-1.089-1.938-1.087
			h-27.39c-1.259,0.005-2.275,1.03-2.271,2.286c0.002,0.423,0.122,0.836,0.345,1.195l36.904,58.827
			c0.411,0.663,0.629,1.427,0.627,2.208c-0.01,0.734-0.197,1.455-0.547,2.101l-0.104,0.184l-39.282,62.145
			c-0.671,1.057-0.359,2.456,0.697,3.128c0.366,0.231,0.79,0.355,1.224,0.354l26.362,0.041c0.788,0,1.519-0.402,1.938-1.067
			l26.697-42.9c0.663-1.064,2.065-1.391,3.131-0.727c0.305,0.189,0.56,0.449,0.746,0.757l25.798,42.8
			c0.412,0.681,1.149,1.097,1.944,1.097l27.407,0.036c1.259-0.002,2.276-1.025,2.273-2.285
			C417.195,174.652,417.083,174.246,416.867,173.893z"/>
		<path fill="#5C2079" d="M496.894,126.737c-0.094-0.511-0.176-1.024-0.258-1.537c-0.099,0.057-0.196,0.116-0.292,0.19
			c-0.369,0.316-0.987,0.791-1.856,1.423c-0.868,0.632-2.502,1.698-4.897,3.199c-2.396,1.502-4.871,2.923-7.426,4.267
			c-2.555,1.341-5.621,2.673-9.203,3.988c-3.581,1.318-7.083,2.291-10.504,2.923c-3.426,0.63-7.11,0.829-11.061,0.592
			c-3.948-0.238-7.636-1.065-11.059-2.488c-3.844-1.527-5.582-3.634-5.212-6.318c-0.055-0.264,0.024-0.476,0.235-0.634
			c0.209-0.157,0.447-0.208,0.712-0.157c5.318,0.315,10.215-0.92,14.692-3.713c3.106-2.053,4.528-4.343,4.265-6.87
			c-0.106-1.474-0.671-2.713-1.698-3.713c-1.026-1-2.251-1.5-3.673-1.5c-2.106-0.106-4.489,0.525-7.147,1.895
			c-2.66,1.37-5.067,3.264-7.228,5.687c-0.508,0.569-0.968,1.141-1.388,1.713c0.153-0.144,0.289-0.27,0.396-0.37
			c0.395-0.368,0.671-0.63,0.829-0.789c0.369-0.421,0.843-0.632,1.424-0.632c0.579,0,1.077,0.197,1.5,0.592
			c0.422,0.396,0.632,0.883,0.632,1.463c0,0.198-0.034,0.383-0.083,0.563c1.393-1.662,3.028-3.071,4.94-4.197
			c2.238-1.315,4.2-1.922,5.886-1.817c0.475,0.053,0.816,0.172,1.026,0.354c0.211,0.186,0.341,0.567,0.396,1.146
			c0.105,0.896-0.659,1.896-2.29,3.004c-0.369,0.21-0.817,0.474-1.343,0.789c-3.425,1.738-6.241,2.687-8.452,2.844
			c-0.964,0.081-1.356-0.146-1.188-0.679c-0.508,0.527-1.125,1.135-1.853,1.825c-0.9,0.85-2.505,2.188-4.795,4.005
			c0.018,0.594,0.101,1.245,0.294,1.996c0.236,0.924,0.62,1.791,1.146,2.608c0.526,0.815,1.329,1.658,2.408,2.527
			c1.078,0.868,2.409,1.62,3.989,2.25c4.948,2.003,10.11,2.975,15.481,2.924c4.213,0,8.636-0.604,13.271-1.816
			c4.633-1.212,8.595-2.554,11.888-4.027c3.291-1.475,6.595-3.201,9.913-5.176c3.317-1.973,5.557-3.383,6.715-4.226
			c0.561-0.407,1.075-0.789,1.55-1.147c-0.187-0.704-0.364-1.423-0.522-2.168C496.948,127.262,496.894,126.999,496.894,126.737z"/>
		<path fill="#5C2079" d="M437.569,127.952c0.053-0.166,0.156-0.359,0.318-0.585c0.223-0.3,0.469-0.574,0.707-0.858
			c0.049-0.18,0.083-0.364,0.083-0.563c0-0.58-0.21-1.066-0.632-1.463c-0.423-0.395-0.921-0.592-1.5-0.592
			c-0.581,0-1.055,0.211-1.424,0.632c-0.158,0.159-0.435,0.421-0.829,0.789c-0.107,0.101-0.243,0.227-0.396,0.37
			c-1.368,1.862-2.276,3.74-2.72,5.633c-0.158,0.687-0.25,1.37-0.276,2.055c-0.005,0.126,0.018,0.278,0.021,0.412
			c2.29-1.816,3.895-3.155,4.795-4.005C436.444,129.086,437.062,128.479,437.569,127.952z"/>
		<path fill="#5C2079" d="M550.608,125.747c-0.422-0.395-0.909-0.592-1.463-0.592c-0.552,0-1.039,0.186-1.461,0.552
			c-0.211,0.211-0.487,0.475-0.829,0.79c-0.343,0.314-1.04,0.937-2.094,1.857c-1.054,0.922-2.106,1.804-3.158,2.646
			c-1.054,0.842-2.411,1.855-4.069,3.041c-1.658,1.184-3.239,2.186-4.739,2.999c-1.5,0.818-3.212,1.7-5.134,2.649
			c-1.923,0.946-3.713,1.592-5.371,1.933c-1.659,0.346-3.449,0.634-5.372,0.871c-1.922,0.237-3.62,0.04-5.094-0.592
			c-4.633-1.421-7.927-5.451-9.874-12.086c-0.527-1.791-0.369-3.555,0.475-5.293c1.104-2.262,2.197-4.582,3.278-6.949
			c1.077-2.37,2.354-5.266,3.83-8.689c1.473-3.421,2.697-6.686,3.672-9.793c0.974-3.108,1.817-6.163,2.528-9.164
			c0.712-3.003,1-5.661,0.87-7.978c-0.132-2.318-0.751-4.055-1.856-5.216c-0.738-0.947-1.713-1.578-2.923-1.895
			c-1.212-0.315-2.369-0.237-3.476,0.237c-2.58,1.106-4.897,4.108-6.951,9.006c-2.055,4.897-3.553,10.505-4.504,16.825
			c-0.947,6.32-1.263,12.323-0.947,18.01c0.127,2.11,0.361,4.205,0.689,6.283c0.39-0.225,0.805-0.322,1.246-0.28
			c0.553,0.054,1.014,0.304,1.383,0.75c0.367,0.447,0.526,0.96,0.475,1.538c-0.055,0.581-0.316,1.055-0.791,1.423
			c-0.407,0.326-0.866,0.682-1.372,1.064c1.052,3.97,2.547,7.294,4.492,9.955c2.291,3.134,5.146,5.202,8.571,6.202
			c1.842,0.525,3.737,0.789,5.686,0.789c3.004,0,6.227-0.62,9.678-1.857c3.448-1.237,6.45-2.618,9.006-4.147
			c2.554-1.525,5.159-3.316,7.819-5.371c2.659-2.055,4.449-3.5,5.371-4.345c0.92-0.841,1.725-1.578,2.409-2.21
			c0.42-0.422,0.631-0.92,0.631-1.503C551.239,126.629,551.029,126.141,550.608,125.747z M500.923,118.48
			c-0.317-0.129-0.502-0.381-0.553-0.749c-0.79-4.107-0.646-9.215,0.433-15.322c1.08-6.109,2.541-11.416,4.384-15.917
			c1.844-4.504,3.424-7.042,4.74-7.623c0.157-0.051,0.315-0.08,0.474-0.08c0.421,0,0.869,0.266,1.342,0.792
			c0.95,1,0.856,4.238-0.275,9.716c-1.133,5.475-2.686,11.097-4.661,16.862c-1.975,5.768-3.672,9.784-5.094,12.046
			C501.501,118.52,501.237,118.613,500.923,118.48z"/>
		<path fill="#5C2079" d="M499.739,127.208c0.052-0.578-0.107-1.091-0.475-1.538c-0.369-0.446-0.83-0.696-1.383-0.75
			c-0.441-0.042-0.856,0.056-1.246,0.28c0.082,0.513,0.164,1.026,0.258,1.537c0,0.262,0.055,0.525,0.16,0.79
			c0.158,0.745,0.336,1.464,0.522,2.168c0.506-0.383,0.965-0.738,1.372-1.064C499.423,128.262,499.685,127.789,499.739,127.208z"/>
	</g>
	<g>
		<path fill="#5C2079" d="M112.669,159.155l1.664,0.786c0.365-0.799,0.731-1.602,1.098-2.41L112.669,159.155z"/>
		<path fill="#5C2079" d="M122.601,141.602c1.037-2.328,2.078-4.677,3.122-7.039l-7.156,4.667L122.601,141.602z"/>
		<path fill="#5C2079" d="M107.932,163.763l-4.134,12.577l3.75-1.769c1.373-2.912,2.775-5.919,4.202-9.008L107.932,163.763z"/>
		<path fill="#5C2079" d="M121.236,123.29l5.221,3.406l3.816-2.489c0.331-0.759,0.662-1.519,0.994-2.277l-4.793-14.58
			L121.236,123.29z"/>
		<path fill="#5C2079" d="M97.81,194.554c1.181-2.322,2.408-4.781,3.673-7.357l-1.071-0.561L97.81,194.554z"/>
		<path fill="#5C2079" d="M95.654,181.301c0.003-0.013,0.009-0.024,0.012-0.038l7.352-22.362c0.051-0.28,0.14-0.548,0.263-0.803
			l11.198-34.063c0.044-0.266,0.137-0.523,0.254-0.774l6.623-20.146c-1.552-1.4-2.534-3.419-2.534-5.671
			c0-4.22,3.434-7.653,7.653-7.653c4.221,0,7.652,3.434,7.652,7.653c0,2.25-0.98,4.271-2.531,5.671l3.38,10.285
			c1.385-3.199,2.765-6.396,4.133-9.58l-0.561-1.706l0.059-0.154c0.548-1.472,0.828-2.99,0.828-4.515
			c0-7.147-5.813-12.962-12.961-12.962c-7.146,0-12.962,5.813-12.962,12.962c0,1.523,0.28,3.043,0.828,4.515l0.06,0.154
			l-2.532,7.703l-0.545-0.708c-2.615-3.389-3.998-7.422-3.998-11.666c0-10.558,8.59-19.149,19.148-19.149
			c8.35,0,15.449,5.38,18.062,12.848c0.861-2.019,1.714-4.022,2.56-6.012c-4.201-7.008-11.872-11.714-20.622-11.714
			c-13.248,0-24.024,10.778-24.024,24.027c0,6.614,2.659,12.787,7.487,17.383l0.216,0.208l-2.09,6.354l-0.531-0.429
			c-7.163-5.783-11.271-14.353-11.271-23.515c0-16.662,13.554-30.213,30.213-30.213c9.461,0,17.917,4.373,23.46,11.201
			c0.721-1.704,1.435-3.396,2.141-5.069c-6.419-6.819-15.519-11.091-25.602-11.091c-19.393,0-35.171,15.777-35.171,35.171
			c0,11.351,5.552,22.072,14.854,28.683l0.284,0.201l-2.002,6.094l-0.516-0.336c-11.776-7.691-18.807-20.645-18.807-34.642
			c0-22.807,18.554-41.36,41.359-41.36c10.887,0,20.797,4.235,28.19,11.135c0.598-1.427,1.191-2.836,1.775-4.23
			c-8.029-6.992-18.506-11.239-29.965-11.239c-25.196,0-45.697,20.5-45.697,45.695c0,16.041,8.205,30.631,21.946,39.024l0.319,0.195
			l-1.97,5.997l-0.505-0.29c-16.023-9.277-25.978-26.491-25.978-44.927c0-28.608,23.274-51.884,51.885-51.884
			c12.282,0,23.572,4.297,32.467,11.456c11.306-27.036,19.215-46.517,19.215-46.517C113.38,48.463,11.627,55.91,11.627,55.91
			c-3.021,0.222-4.369,2.61-2.994,5.31l76.874,150.946L95.654,181.301z"/>
		<polygon fill="#5C2079" points="118.385,131.96 120.794,130.389 119.235,129.373 		"/>
		<path fill="#5C2079" d="M111.599,152.608l8.253-4.854c0.069-0.155,0.139-0.311,0.209-0.469l-5.626-3.309L111.599,152.608z"/>
	</g>
</g>
</svg>
